<?xml version="1.0" standalone="no"?>
<!DOCTYPE svg PUBLIC "-//W3C//DTD SVG 20010904//EN"
 "http://www.w3.org/TR/2001/REC-SVG-20010904/DTD/svg10.dtd">
<svg version="1.0" xmlns="http://www.w3.org/2000/svg"
 width="96.000000pt" height="96.000000pt" viewBox="0 0 96.000000 96.000000"
 preserveAspectRatio="xMidYMid meet">

<g transform="translate(0.000000,96.000000) scale(0.100000,-0.100000)"
fill="#000000" stroke="none">
<path d="M810 840 c0 -23 -10 -26 -29 -7 -11 10 -13 9 -8 -5 8 -21 -3 -31 -20
-17 -10 9 -13 7 -13 -8 0 -22 -272 -283 -295 -283 -26 0 -29 46 -6 79 27 38
27 41 -7 41 -36 0 -57 -23 -102 -109 -34 -64 -37 -67 -100 -89 -148 -53 -165
-133 -53 -253 61 -66 118 -93 161 -78 36 12 58 41 93 124 21 50 33 64 71 85
61 34 78 49 78 71 0 22 -9 23 -44 8 -29 -14 -56 1 -56 30 0 9 59 81 131 161
93 103 139 146 157 148 14 2 45 24 69 48 36 37 40 46 25 50 -9 3 -25 10 -34
15 -14 7 -18 5 -18 -11z m-400 -365 l-34 -35 27 -28 c26 -25 29 -26 38 -9 10
18 12 18 35 -4 18 -17 31 -21 59 -16 46 8 38 -4 -31 -44 -37 -21 -61 -43 -72
-66 -13 -27 -21 -33 -37 -29 -11 3 -30 6 -42 6 -16 0 -23 6 -23 18 0 10 -13
31 -30 47 -36 34 -36 36 -9 93 23 47 95 102 133 102 17 0 15 -5 -14 -35z"/>
<path d="M300 387 c0 -16 62 -77 78 -77 22 0 13 26 -21 58 -35 34 -57 41 -57
19z"/>
</g>
</svg>
